# xmcd
#
# Track frame offsets:
#	150
#	9922
#	21412
#	41100
#	55727
#	77952
#	89985
#	101517
#	113510
#	130575
#	143725
#	158087
#
# Disc length: 2307
#
# Revision: 1
# Processed by: cddbd v1.5.1PL0 Copyright (c) Steve Scherf et al.
# Submitted via: CDex 1.51
# Normalized: r0:TSWAP
#
DISCID=9509010c
DTITLE=Various Artist - Entertainment Weekly 2 - Disk 2
DYEAR=1995
DGENRE=Country
TTITLE0=Waylon Jennings - Dukes Of Hazard
TTITLE1=Kitty Wells - It Wan't God Who Made Honky Tonk Angles
TTITLE2=Marty Robbins - El Paso
TTITLE3=Don Williams - Tulsa Time
TTITLE4=Marshal Tucker Band - Heard It In A Love Song
TTITLE5=Oak Ridge Boys - Elvira
TTITLE6=Willie Nelson - On The Road  Again
TTITLE7=Crystal Gayle - Don't It Make My Brown Eyes Blue
TTITLE8=Johnny Cash - A Boy Named Sue
TTITLE9=George Strait - Amarillo By Morning
TTITLE10=Eddie Rabbit - I Love A Rainy Night
TTITLE11=Sylvia - Nobody
EXTD=YEAR: 1995
EXTT0=
EXTT1=
EXTT2=
EXTT3=
EXTT4=
EXTT5=
EXTT6=
EXTT7=
EXTT8=
EXTT9=
EXTT10=
EXTT11=
PLAYORDER=
